<?xml version="1.0" standalone="no"?>
<!DOCTYPE svg PUBLIC "-//W3C//DTD SVG 20010904//EN"
 "http://www.w3.org/TR/2001/REC-SVG-20010904/DTD/svg10.dtd">
<svg version="1.0" xmlns="http://www.w3.org/2000/svg"
 width="165.000000pt" height="115.000000pt" viewBox="0 0 165.000000 115.000000"
 preserveAspectRatio="xMidYMid meet">

<g transform="translate(0.000000,115.000000) scale(0.100000,-0.100000)"
fill="#000000" stroke="none">
<path d="M0 575 l0 -575 825 0 825 0 0 109 c0 61 -4 112 -8 115 -5 3 -69 10
-143 16 -74 6 -154 17 -179 25 -25 7 -74 16 -109 20 -35 3 -70 12 -77 18 -34
31 -45 37 -95 51 -60 18 -69 19 -69 8 0 -5 17 -13 38 -19 36 -10 36 -11 -27
-12 -83 -1 -75 -9 11 -12 74 -2 88 -14 60 -49 -16 -19 -31 -23 -122 -27 -126
-6 -172 3 -177 36 -3 19 0 22 14 16 30 -11 113 -22 113 -15 0 4 -26 12 -57 16
-68 11 -85 33 -21 29 39 -2 40 -2 8 4 l-35 6 45 9 c25 4 39 10 31 13 -17 7
-124 -18 -132 -30 -8 -11 -91 32 -84 43 3 4 -4 10 -15 13 -31 8 -25 87 6 87 8
0 11 6 8 15 -4 8 1 17 10 21 9 4 16 18 16 34 0 24 6 29 53 44 28 10 89 20 135
23 95 7 259 -13 280 -33 18 -18 39 -19 24 -1 -20 24 -96 56 -163 69 -72 13
-79 21 -108 110 -14 42 -8 59 33 97 14 14 26 28 26 33 0 11 -54 10 -65 -1 -6
-5 -20 -11 -33 -13 -12 -1 -23 -7 -24 -13 -1 -5 -10 -19 -20 -29 -21 -23 -21
-24 -4 -98 l14 -58 -26 0 c-22 0 -24 -2 -12 -11 12 -8 10 -9 -7 -4 -12 3 -24
1 -28 -5 -3 -6 -10 -8 -15 -5 -4 3 -13 -2 -20 -10 -7 -8 -21 -15 -31 -15 -10
0 -27 -9 -38 -21 -11 -12 -24 -18 -30 -15 -7 5 -8 1 -4 -10 4 -11 2 -15 -4
-11 -6 4 -13 -2 -16 -12 -3 -14 -11 -18 -24 -15 -11 3 -27 -2 -36 -10 -21 -22
-37 -20 -37 3 0 16 -7 19 -43 19 -24 -1 -49 2 -55 6 -14 8 -4 36 12 36 7 0 40
27 74 60 35 33 67 60 73 60 6 0 17 6 24 14 12 11 10 15 -10 24 -17 8 -22 17
-18 31 3 12 11 21 18 21 7 0 42 13 77 30 34 16 71 30 81 30 9 0 34 9 54 20 21
11 47 20 58 20 15 0 16 3 7 9 -10 6 -1 13 30 26 91 39 148 60 203 75 17 5 62
18 100 29 39 12 135 30 215 41 80 11 161 24 180 30 19 5 47 10 62 10 18 0 28
5 28 15 0 13 -98 15 -825 15 l-825 0 0 -575z m825 245 c-3 -5 -11 -10 -16 -10
-6 0 -7 5 -4 10 3 6 11 10 16 10 6 0 7 -4 4 -10z m9 -56 c3 -8 2 -12 -4 -9 -6
3 -10 10 -10 16 0 14 7 11 14 -7z m-434 -290 c0 -17 75 -20 85 -4 9 14 25 2
19 -14 -6 -17 22 -41 31 -26 10 17 25 11 25 -9 0 -11 -8 -22 -17 -24 -10 -3
-5 -5 12 -6 23 -1 27 -3 15 -11 -12 -8 -11 -10 5 -10 13 0 24 -10 31 -29 l11
-29 -33 10 c-25 7 -41 5 -65 -7 -17 -9 -40 -15 -50 -12 -11 3 -19 2 -19 -1 0
-4 -48 -7 -107 -7 -93 0 -118 -4 -181 -28 -77 -28 -97 -33 -72 -17 13 8 13 10
-1 10 -11 0 -15 9 -14 32 1 18 7 34 14 36 6 2 11 12 11 23 0 10 5 19 10 19 6
0 10 11 10 24 0 21 6 24 50 30 33 4 50 11 50 20 0 9 15 17 38 21 20 3 47 12
60 19 29 15 82 9 82 -10z m-353 -250 c-3 -3 -12 -4 -19 -1 -8 3 -5 6 6 6 11 1
17 -2 13 -5z m763 -40 c42 -15 143 -19 223 -9 42 5 23 -11 -27 -24 -59 -15
-222 -13 -266 3 -19 7 -36 20 -38 29 -5 22 47 23 108 1z"/>
<path d="M672 731 c-18 -3 -33 -10 -32 -16 1 -12 47 -26 65 -19 7 3 15 -2 18
-10 9 -22 27 -20 27 2 0 14 -34 55 -43 51 -1 -1 -17 -4 -35 -8z"/>
<path d="M1166 523 c-6 -14 -5 -15 5 -6 7 7 10 15 7 18 -3 3 -9 -2 -12 -12z"/>
<path d="M893 493 c9 -2 23 -2 30 0 6 3 -1 5 -18 5 -16 0 -22 -2 -12 -5z"/>
<path d="M1210 451 c0 -5 7 -12 16 -15 22 -9 24 -8 24 9 0 8 -9 15 -20 15 -11
0 -20 -4 -20 -9z"/>
<path d="M805 385 c23 -8 83 -10 79 -3 -3 4 -24 8 -47 7 -23 0 -37 -2 -32 -4z"/>
<path d="M956 382 c-2 -4 13 -6 35 -4 21 2 39 6 39 8 0 7 -69 4 -74 -4z"/>
<path d="M878 323 c6 -2 18 -2 25 0 6 3 1 5 -13 5 -14 0 -19 -2 -12 -5z"/>
<path d="M945 285 c-41 -8 -51 -13 -30 -14 51 -2 135 11 129 20 -7 11 -23 10
-99 -6z"/>
</g>
</svg>
