<svg version="1.1" id="Layer_1" xmlns="http://www.w3.org/2000/svg" xmlns:xlink="http://www.w3.org/1999/xlink" x="0px" y="0px"
	 width="100%" viewBox="0 0 252 86" enable-background="new 0 0 252 86" xml:space="preserve">
<path fill="#100F17" opacity="1.000000" stroke="none" 
	d="
M166.000000,87.000000 
	C110.666672,87.000000 55.833347,87.000000 1.000015,87.000000 
	C1.000010,58.333344 1.000010,29.666687 1.000005,1.000022 
	C84.999977,1.000015 168.999954,1.000015 252.999954,1.000008 
	C252.999969,29.666643 252.999969,58.333286 252.999985,86.999969 
	C224.166672,87.000000 195.333328,87.000000 166.000000,87.000000 
M138.893661,71.088501 
	C141.934341,71.050278 144.975006,71.012062 148.918457,71.191193 
	C154.621155,71.298355 160.323868,71.405525 166.921661,71.760277 
	C170.889084,71.829811 174.856506,71.899353 179.628403,72.233810 
	C190.104935,72.781509 200.581451,73.329216 211.892822,74.026482 
	C221.698151,75.001251 231.503479,75.976021 241.369934,76.956863 
	C243.137939,71.888474 239.560730,72.593307 236.186066,72.005966 
	C228.757446,71.389229 221.328812,70.772499 213.137726,70.011932 
	C204.433807,69.311867 195.729889,68.611809 186.366898,67.408684 
	C177.605072,66.941048 168.841385,66.045479 160.081741,66.083382 
	C129.837585,66.214264 99.594551,66.650795 69.352371,67.063728 
	C67.893166,67.083649 66.446014,67.987000 64.199776,68.661194 
	C63.117844,68.659355 62.035915,68.657509 60.244946,68.256500 
	C52.840923,68.848907 45.436897,69.441322 38.086567,70.299606 
	C38.086567,70.299606 38.237717,70.524826 37.443218,70.399933 
	C35.302078,70.625061 33.160938,70.850189 30.118200,70.923904 
	C24.675196,71.397385 19.207756,71.700188 13.807651,72.473320 
	C12.573042,72.650078 11.570649,74.448822 10.461381,75.501068 
	C10.823623,75.995735 11.185863,76.490410 11.548104,76.985077 
	C21.384628,76.005905 31.221151,75.026733 41.878410,74.149002 
	C43.255348,74.048355 44.632286,73.947716 46.829594,73.982124 
	C48.199726,73.844254 49.569859,73.706383 51.743427,73.663383 
	C54.161976,73.448578 56.580528,73.233780 59.914604,73.205704 
	C64.300018,72.993164 68.685425,72.780624 73.764259,72.688545 
	C75.384674,72.496269 77.005089,72.303986 79.109398,72.313896 
	C79.777946,72.222214 80.446503,72.130524 82.031754,72.155472 
	C88.692757,71.878250 95.353760,71.601028 102.822235,71.528954 
	C114.548058,71.322662 126.273872,71.116364 138.893661,71.088501 
M23.306650,17.967949 
	C22.027618,11.912480 17.590422,16.376154 14.532177,14.842283 
	C14.532177,29.802179 14.532177,44.195942 14.532177,58.770897 
	C16.972988,58.770897 19.223564,58.770897 21.430716,58.770897 
	C21.657045,57.451576 21.840815,56.380352 22.045464,55.187416 
	C29.992708,61.343681 38.506050,61.760391 44.290142,56.429054 
	C50.360592,50.833775 51.657555,39.141006 47.000526,31.993544 
	C42.242836,24.691582 35.291103,23.683002 23.307201,28.897852 
	C23.307201,25.401085 23.307201,22.143314 23.306650,17.967949 
M216.692490,59.025497 
	C224.138382,59.025497 231.584274,59.025497 238.909103,59.025497 
	C238.909103,56.291607 238.909103,54.173931 238.909103,51.536926 
	C232.769150,51.536926 226.869095,51.536926 220.797623,51.536926 
	C220.797623,47.758888 220.797623,44.504044 220.797623,40.728348 
	C226.400162,40.728348 231.810379,40.728348 237.462418,40.728348 
	C237.462418,37.970264 237.462418,35.732384 237.462418,32.875916 
	C231.760880,32.875916 226.228561,32.875916 220.927368,32.875916 
	C220.927368,29.175985 220.927368,26.096758 220.927368,22.573215 
	C227.022873,22.573215 232.781647,22.573215 238.575073,22.573215 
	C238.575073,19.850298 238.575073,17.606468 238.575073,15.183473 
	C229.523499,15.183473 220.754944,15.183473 211.424896,15.183473 
	C211.424896,22.459801 211.424896,29.580889 211.424896,36.701977 
	C211.424896,43.995544 211.424896,51.289108 211.424896,58.796391 
	C213.160004,58.888172 214.450851,58.956451 216.692490,59.025497 
M61.392174,57.279381 
	C65.831665,58.199081 70.284195,59.934784 74.707870,59.864155 
	C83.229378,59.728100 89.209656,53.567501 90.168228,45.226486 
	C91.217690,36.094585 86.784836,28.707901 78.656921,26.044613 
	C69.958839,23.194494 60.694801,26.313335 56.430481,33.527393 
	C51.920555,41.156944 53.638088,50.387936 61.392174,57.279381 
M96.140594,29.787266 
	C96.175789,35.785988 95.922874,41.803535 96.313400,47.779034 
	C96.906204,56.849499 102.027313,61.161770 110.896805,59.839996 
	C113.739059,59.416428 116.322548,57.256481 118.869331,55.969353 
	C118.989136,61.735764 123.412788,58.058739 126.010239,58.959389 
	C126.010239,47.874752 126.010239,37.118038 126.010239,26.278614 
	C123.091469,26.278614 120.470039,26.278614 117.286407,26.278614 
	C117.286407,32.414261 117.328011,38.370991 117.274208,44.326855 
	C117.224648,49.812134 115.336914,52.143814 111.103172,52.152962 
	C106.897499,52.162052 105.203720,49.947266 105.161209,44.203884 
	C105.117287,38.269733 105.151436,32.335003 105.151436,26.088701 
	C102.692543,26.088701 100.797676,25.752098 99.115891,26.205654 
	C97.972435,26.514030 97.127556,27.929504 96.140594,29.787266 
M157.073441,51.434471 
	C157.073441,53.873405 157.073441,56.312344 157.073441,58.655556 
	C160.339371,58.655556 163.052353,58.655556 165.879517,58.655556 
	C165.879517,51.320042 166.152878,44.333961 165.812973,37.377850 
	C165.348129,27.865204 157.886292,22.785501 149.272827,25.963573 
	C147.052399,26.782835 145.152115,28.469748 143.003662,29.821705 
	C142.851288,23.796049 138.687698,26.594990 135.618622,26.282633 
	C135.618622,37.360943 135.618622,48.071873 135.618622,58.865162 
	C138.592758,58.865162 141.230286,58.865162 144.319275,58.865162 
	C144.319275,52.762260 144.191345,46.803123 144.358032,40.852238 
	C144.502411,35.698208 146.896118,33.012150 150.854263,33.023735 
	C154.818558,33.035339 156.989609,35.781670 157.065704,40.977467 
	C157.111984,44.137516 157.073914,47.298801 157.073441,51.434471 
M175.197800,31.843107 
	C174.204910,36.453743 172.232300,41.106129 172.426620,45.666172 
	C172.810730,54.679287 180.115799,60.476856 189.340302,60.305199 
	C198.075851,60.142647 203.602829,55.381172 204.546005,46.845299 
	C200.587524,46.754997 196.868408,45.533642 194.141403,50.473194 
	C192.402451,53.623024 188.328369,53.711861 185.201920,51.745678 
	C180.703598,48.916748 180.314011,44.119495 181.587067,39.755688 
	C182.341248,37.170403 184.782990,34.133789 187.204712,33.184177 
	C191.614197,31.455137 194.775787,34.131817 196.149643,38.449760 
	C198.948868,38.449760 201.538101,38.449760 204.134979,38.449760 
	C203.775986,32.283878 200.772278,28.119251 195.470825,26.160891 
	C188.169403,23.463736 181.224213,25.251192 175.197800,31.843107 
z"/>
<path fill="#F3F3F3" opacity="1.000000" stroke="none" 
	d="
M23.306927,18.426746 
	C23.307201,22.143314 23.307201,25.401085 23.307201,28.897852 
	C35.291103,23.683002 42.242836,24.691582 47.000526,31.993544 
	C51.657555,39.141006 50.360592,50.833775 44.290142,56.429054 
	C38.506050,61.760391 29.992708,61.343681 22.045464,55.187416 
	C21.840815,56.380352 21.657045,57.451576 21.430716,58.770897 
	C19.223564,58.770897 16.972988,58.770897 14.532177,58.770897 
	C14.532177,44.195942 14.532177,29.802179 14.532177,14.842283 
	C17.590422,16.376154 22.027618,11.912480 23.306927,18.426746 
M28.629040,52.125355 
	C32.766815,54.042046 36.203041,52.758606 38.649040,49.319893 
	C41.481979,45.337200 41.472954,40.885880 39.157211,36.628365 
	C37.104664,32.854744 33.268055,31.654095 29.793280,33.182159 
	C27.172712,34.334576 24.373093,37.193233 23.560806,39.871090 
	C22.188686,44.394535 22.809940,49.193142 28.629040,52.125355 
z"/>
<path fill="#F0F0F1" opacity="1.000000" stroke="none" 
	d="
M216.217102,59.025116 
	C214.450851,58.956451 213.160004,58.888172 211.424896,58.796391 
	C211.424896,51.289108 211.424896,43.995544 211.424896,36.701977 
	C211.424896,29.580889 211.424896,22.459801 211.424896,15.183473 
	C220.754944,15.183473 229.523499,15.183473 238.575073,15.183473 
	C238.575073,17.606468 238.575073,19.850298 238.575073,22.573215 
	C232.781647,22.573215 227.022873,22.573215 220.927368,22.573215 
	C220.927368,26.096758 220.927368,29.175985 220.927368,32.875916 
	C226.228561,32.875916 231.760880,32.875916 237.462418,32.875916 
	C237.462418,35.732384 237.462418,37.970264 237.462418,40.728348 
	C231.810379,40.728348 226.400162,40.728348 220.797623,40.728348 
	C220.797623,44.504044 220.797623,47.758888 220.797623,51.536926 
	C226.869095,51.536926 232.769150,51.536926 238.909103,51.536926 
	C238.909103,54.173931 238.909103,56.291607 238.909103,59.025497 
	C231.584274,59.025497 224.138382,59.025497 216.217102,59.025116 
z"/>
<path fill="#F5F5F5" opacity="1.000000" stroke="none" 
	d="
M61.082008,57.069878 
	C53.638088,50.387936 51.920555,41.156944 56.430481,33.527393 
	C60.694801,26.313335 69.958839,23.194494 78.656921,26.044613 
	C86.784836,28.707901 91.217690,36.094585 90.168228,45.226486 
	C89.209656,53.567501 83.229378,59.728100 74.707870,59.864155 
	C70.284195,59.934784 65.831665,58.199081 61.082008,57.069878 
M78.427414,34.987267 
	C73.519157,31.854498 68.941261,31.967165 65.766602,35.298874 
	C62.532551,38.692913 62.167698,45.310436 64.998917,49.222672 
	C67.675507,52.921246 72.460281,54.006897 76.581749,51.850796 
	C80.506256,49.797733 82.411278,44.212471 80.807961,39.097942 
	C80.417030,37.850880 79.615906,36.732403 78.427414,34.987267 
z"/>
<path fill="#F4F3F4" opacity="1.000000" stroke="none" 
	d="
M96.144882,29.318588 
	C97.127556,27.929504 97.972435,26.514030 99.115891,26.205654 
	C100.797676,25.752098 102.692543,26.088701 105.151436,26.088701 
	C105.151436,32.335003 105.117287,38.269733 105.161209,44.203884 
	C105.203720,49.947266 106.897499,52.162052 111.103172,52.152962 
	C115.336914,52.143814 117.224648,49.812134 117.274208,44.326855 
	C117.328011,38.370991 117.286407,32.414261 117.286407,26.278614 
	C120.470039,26.278614 123.091469,26.278614 126.010239,26.278614 
	C126.010239,37.118038 126.010239,47.874752 126.010239,58.959389 
	C123.412788,58.058739 118.989136,61.735764 118.869331,55.969353 
	C116.322548,57.256481 113.739059,59.416428 110.896805,59.839996 
	C102.027313,61.161770 96.906204,56.849499 96.313400,47.779034 
	C95.922874,41.803535 96.175789,35.785988 96.144882,29.318588 
z"/>
<path fill="#F3F3F3" opacity="1.000000" stroke="none" 
	d="
M157.073578,50.947002 
	C157.073914,47.298801 157.111984,44.137516 157.065704,40.977467 
	C156.989609,35.781670 154.818558,33.035339 150.854263,33.023735 
	C146.896118,33.012150 144.502411,35.698208 144.358032,40.852238 
	C144.191345,46.803123 144.319275,52.762260 144.319275,58.865162 
	C141.230286,58.865162 138.592758,58.865162 135.618622,58.865162 
	C135.618622,48.071873 135.618622,37.360943 135.618622,26.282633 
	C138.687698,26.594990 142.851288,23.796049 143.003662,29.821705 
	C145.152115,28.469748 147.052399,26.782835 149.272827,25.963573 
	C157.886292,22.785501 165.348129,27.865204 165.812973,37.377850 
	C166.152878,44.333961 165.879517,51.320042 165.879517,58.655556 
	C163.052353,58.655556 160.339371,58.655556 157.073441,58.655556 
	C157.073441,56.312344 157.073441,53.873405 157.073578,50.947002 
z"/>
<path fill="#F4F4F5" opacity="1.000000" stroke="none" 
	d="
M175.424591,31.552433 
	C181.224213,25.251192 188.169403,23.463736 195.470825,26.160891 
	C200.772278,28.119251 203.775986,32.283878 204.134979,38.449760 
	C201.538101,38.449760 198.948868,38.449760 196.149643,38.449760 
	C194.775787,34.131817 191.614197,31.455137 187.204712,33.184177 
	C184.782990,34.133789 182.341248,37.170403 181.587067,39.755688 
	C180.314011,44.119495 180.703598,48.916748 185.201920,51.745678 
	C188.328369,53.711861 192.402451,53.623024 194.141403,50.473194 
	C196.868408,45.533642 200.587524,46.754997 204.546005,46.845299 
	C203.602829,55.381172 198.075851,60.142647 189.340302,60.305199 
	C180.115799,60.476856 172.810730,54.679287 172.426620,45.666172 
	C172.232300,41.106129 174.204910,36.453743 175.424591,31.552433 
z"/>
<path fill="#11200C" opacity="1.000000" stroke="none" 
	d="
M64.993256,68.478958 
	C66.446014,67.987000 67.893166,67.083649 69.352371,67.063728 
	C99.594551,66.650795 129.837585,66.214264 160.081741,66.083382 
	C168.841385,66.045479 177.605072,66.941048 186.352539,67.737015 
	C185.875595,68.137466 185.412979,68.209595 184.491959,68.197929 
	C177.708374,68.019165 171.383224,67.924194 164.773499,67.737946 
	C164.293259,67.684059 164.097580,67.721443 163.638824,67.604752 
	C162.579926,67.495712 161.784073,67.540764 160.537811,67.467651 
	C156.045959,67.313477 152.004532,67.277466 147.725311,67.195091 
	C147.177902,67.315056 147.001160,67.572586 146.718262,67.978676 
	C146.479187,68.036026 146.010666,68.185287 145.544983,68.118378 
	C129.056900,68.055504 113.034500,68.059540 96.572754,67.882401 
	C85.753357,67.960472 75.373306,68.219719 64.993256,68.478958 
z"/>
<path fill="#BCDA8C" opacity="1.000000" stroke="none" 
	d="
M64.596512,68.570076 
	C75.373306,68.219719 85.753357,67.960472 96.660172,68.238312 
	C98.787155,69.187149 100.387383,69.598907 101.993851,70.229675 
	C102.034607,70.739883 102.039497,71.031593 102.014763,71.323807 
	C95.353760,71.601028 88.692757,71.878250 81.158997,72.061584 
	C79.732666,72.015701 79.179085,72.063713 78.625504,72.111710 
	C77.005089,72.303986 75.384674,72.496269 73.240623,72.293259 
	C68.185532,71.617622 63.654072,71.337273 58.646835,71.036850 
	C51.526615,70.852798 44.882164,70.688812 38.237717,70.524826 
	C38.237717,70.524826 38.086567,70.299606 38.513493,70.238609 
	C46.278275,69.670296 53.616127,69.162979 60.953983,68.655663 
	C62.035915,68.657509 63.117844,68.659355 64.596512,68.570076 
z"/>
<path fill="#9366C7" opacity="1.000000" stroke="none" 
	d="
M211.057983,73.876923 
	C200.581451,73.329216 190.104935,72.781509 179.286530,71.850746 
	C178.959503,71.296768 178.974335,71.125847 179.413712,70.962570 
	C181.535446,70.937737 183.232651,70.905258 185.402191,70.931351 
	C188.019577,70.997704 190.167038,71.075531 192.309158,71.000473 
	C199.507202,70.748268 206.703323,70.441597 213.900192,70.155762 
	C221.328812,70.772499 228.757446,71.389229 236.240555,72.358109 
	C232.871277,72.793839 229.444244,72.810226 226.024536,72.976936 
	C221.032928,73.220276 216.046570,73.571609 211.057983,73.876923 
z"/>
<path fill="#DCC27E" opacity="1.000000" stroke="none" 
	d="
M41.057674,74.047562 
	C31.221151,75.026733 21.384628,76.005905 11.548104,76.985077 
	C11.185863,76.490410 10.823623,75.995735 10.461381,75.501068 
	C11.570649,74.448822 12.573042,72.650078 13.807651,72.473320 
	C19.207756,71.700188 24.675196,71.397385 30.855648,71.248276 
	C34.747952,72.397614 37.902813,73.222588 41.057674,74.047562 
z"/>
<path fill="#A3CEA1" opacity="1.000000" stroke="none" 
	d="
M184.929840,70.872772 
	C183.232651,70.905258 181.535446,70.937737 179.111115,70.706367 
	C174.264847,70.799248 170.145706,71.155968 166.026566,71.512695 
	C160.323868,71.405525 154.621155,71.298355 148.780167,70.820206 
	C151.604462,70.297997 154.601593,70.362122 157.513428,69.894691 
	C158.763031,69.694092 159.835358,68.389053 160.988235,67.585815 
	C161.784073,67.540764 162.579926,67.495712 163.751587,67.778412 
	C164.437622,68.013847 164.747833,67.921539 165.058060,67.829231 
	C171.383224,67.924194 177.708374,68.019165 184.502625,68.523102 
	C184.957764,69.578972 184.943802,70.225868 184.929840,70.872772 
z"/>
<path fill="#C77AC6" opacity="1.000000" stroke="none" 
	d="
M211.475403,73.951698 
	C216.046570,73.571609 221.032928,73.220276 226.024536,72.976936 
	C229.444244,72.810226 232.871277,72.793839 236.644440,72.495590 
	C239.560730,72.593307 243.137939,71.888474 241.369934,76.956863 
	C231.503479,75.976021 221.698151,75.001251 211.475403,73.951698 
z"/>
<path fill="#96A2B1" opacity="1.000000" stroke="none" 
	d="
M185.402191,70.931351 
	C184.943802,70.225868 184.957764,69.578972 184.961044,68.606895 
	C185.412979,68.209595 185.875595,68.137466 186.682083,67.988541 
	C195.729889,68.611809 204.433807,69.311867 213.518951,70.083847 
	C206.703323,70.441597 199.507202,70.748268 192.309158,71.000473 
	C190.167038,71.075531 188.019577,70.997704 185.402191,70.931351 
z"/>
<path fill="#DCD68D" opacity="1.000000" stroke="none" 
	d="
M41.468040,74.098282 
	C37.902813,73.222588 34.747952,72.397614 31.306446,71.323975 
	C33.160938,70.850189 35.302078,70.625061 37.840469,70.462379 
	C44.882164,70.688812 51.526615,70.852798 58.614574,71.362396 
	C59.038418,72.144997 59.018745,72.581985 58.999077,73.018974 
	C56.580528,73.233780 54.161976,73.448578 51.066673,73.432129 
	C48.929691,73.416275 47.469456,73.631668 46.009224,73.847076 
	C44.632286,73.947716 43.255348,74.048355 41.468040,74.098282 
z"/>
<path fill="#AFEFA1" opacity="1.000000" stroke="none" 
	d="
M160.537811,67.467651 
	C159.835358,68.389053 158.763031,69.694092 157.513428,69.894691 
	C154.601593,70.362122 151.604462,70.297997 148.328781,70.711533 
	C144.975006,71.012062 141.934341,71.050278 138.446152,70.775856 
	C137.998642,70.463211 137.997559,70.016350 138.425583,70.011925 
	C141.239288,69.400101 143.624985,68.792694 146.010666,68.185287 
	C146.010666,68.185287 146.479187,68.036026 146.920303,67.925095 
	C147.619171,67.683357 147.819733,67.492455 147.963104,67.241455 
	C152.004532,67.277466 156.045959,67.313477 160.537811,67.467651 
z"/>
<path fill="#B6F19E" opacity="1.000000" stroke="none" 
	d="
M137.997559,70.016350 
	C137.997559,70.016350 137.998642,70.463211 137.999176,70.686646 
	C126.273872,71.116364 114.548058,71.322662 102.418503,71.426376 
	C102.039497,71.031593 102.034607,70.739883 102.463905,70.225281 
	C114.617668,70.006706 126.307610,70.011528 137.997559,70.016350 
z"/>
<path fill="#11200C" opacity="1.000000" stroke="none" 
	d="
M60.599464,68.456085 
	C53.616127,69.162979 46.278275,69.670296 38.486649,70.105675 
	C45.436897,69.441322 52.840923,68.848907 60.599464,68.456085 
z"/>
<path fill="#C3BF78" opacity="1.000000" stroke="none" 
	d="
M59.456841,73.112335 
	C59.018745,72.581985 59.038418,72.144997 59.090347,71.382462 
	C63.654072,71.337273 68.185532,71.617622 72.893913,72.233025 
	C68.685425,72.780624 64.300018,72.993164 59.456841,73.112335 
z"/>
<path fill="#96A2B1" opacity="1.000000" stroke="none" 
	d="
M166.474121,71.636490 
	C170.145706,71.155968 174.264847,70.799248 178.686584,70.698715 
	C178.974335,71.125847 178.959503,71.296768 178.884308,71.718285 
	C174.856506,71.899353 170.889084,71.829811 166.474121,71.636490 
z"/>
<path fill="#C3BF78" opacity="1.000000" stroke="none" 
	d="
M46.419411,73.914597 
	C47.469456,73.631668 48.929691,73.416275 50.664955,73.384689 
	C49.569859,73.706383 48.199726,73.844254 46.419411,73.914597 
z"/>
<path fill="#C3BF78" opacity="1.000000" stroke="none" 
	d="
M78.867447,72.212807 
	C79.179085,72.063713 79.732666,72.015701 80.700653,72.003265 
	C80.446503,72.130524 79.777946,72.222214 78.867447,72.212807 
z"/>
<path fill="#16151C" opacity="1.000000" stroke="none" 
	d="
M28.258034,51.999775 
	C22.809940,49.193142 22.188686,44.394535 23.560806,39.871090 
	C24.373093,37.193233 27.172712,34.334576 29.793280,33.182159 
	C33.268055,31.654095 37.104664,32.854744 39.157211,36.628365 
	C41.472954,40.885880 41.481979,45.337200 38.649040,49.319893 
	C36.203041,52.758606 32.766815,54.042046 28.258034,51.999775 
z"/>
<path fill="#14131A" opacity="1.000000" stroke="none" 
	d="
M78.715393,35.271034 
	C79.615906,36.732403 80.417030,37.850880 80.807961,39.097942 
	C82.411278,44.212471 80.506256,49.797733 76.581749,51.850796 
	C72.460281,54.006897 67.675507,52.921246 64.998917,49.222672 
	C62.167698,45.310436 62.532551,38.692913 65.766602,35.298874 
	C68.941261,31.967165 73.519157,31.854498 78.715393,35.271034 
z"/>
<path fill="#B3F990" opacity="1.000000" stroke="none" 
	d="
M138.425583,70.011925 
	C126.307610,70.011528 114.617668,70.006706 102.457664,70.006279 
	C100.387383,69.598907 98.787155,69.187149 97.099518,68.419479 
	C113.034500,68.059540 129.056900,68.055504 145.544983,68.118378 
	C143.624985,68.792694 141.239288,69.400101 138.425583,70.011925 
z"/>
<path fill="#AFEFA1" opacity="1.000000" stroke="none" 
	d="
M164.773499,67.737946 
	C164.747833,67.921539 164.437622,68.013847 164.014648,67.932495 
	C164.097580,67.721443 164.293259,67.684059 164.773499,67.737946 
z"/>
<path fill="#A3CEA1" opacity="1.000000" stroke="none" 
	d="
M147.725311,67.195091 
	C147.819733,67.492455 147.619171,67.683357 147.159378,67.867752 
	C147.001160,67.572586 147.177902,67.315056 147.725311,67.195091 
z"/>
</svg>